<mxfile host="65bd71144e">
    <diagram id="7zJRjePFEkqeR023b0y-" name="Demonstração 1">
        <mxGraphModel dx="1466" dy="1768" grid="1" gridSize="10" guides="1" tooltips="1" connect="1" arrows="1" fold="1" page="1" pageScale="1" pageWidth="850" pageHeight="1100" math="0" shadow="0">
            <root>
                <mxCell id="0"/>
                <mxCell id="1" parent="0"/>
                <mxCell id="16" value="Availability Zone" style="fillColor=none;strokeColor=#147EBA;dashed=1;verticalAlign=top;fontStyle=0;fontColor=#147EBA;whiteSpace=wrap;html=1;" parent="1" vertex="1">
                    <mxGeometry x="240" y="-40" width="350" height="470" as="geometry"/>
                </mxCell>
                <mxCell id="15" value="VPC" style="sketch=0;outlineConnect=0;gradientColor=none;html=1;whiteSpace=wrap;fontSize=12;fontStyle=0;shape=mxgraph.aws4.group;grIcon=mxgraph.aws4.group_vpc;strokeColor=#879196;fillColor=none;verticalAlign=top;align=left;spacingLeft=30;fontColor=#879196;dashed=0;" parent="1" vertex="1">
                    <mxGeometry x="215" y="20" width="400" height="390" as="geometry"/>
                </mxCell>
                <mxCell id="2" value="Public subnet" style="points=[[0,0],[0.25,0],[0.5,0],[0.75,0],[1,0],[1,0.25],[1,0.5],[1,0.75],[1,1],[0.75,1],[0.5,1],[0.25,1],[0,1],[0,0.75],[0,0.5],[0,0.25]];outlineConnect=0;gradientColor=none;html=1;whiteSpace=wrap;fontSize=12;fontStyle=0;container=1;pointerEvents=0;collapsible=0;recursiveResize=0;shape=mxgraph.aws4.group;grIcon=mxgraph.aws4.group_security_group;grStroke=0;strokeColor=#7AA116;fillColor=#F2F6E8;verticalAlign=top;align=left;spacingLeft=30;fontColor=#248814;dashed=0;" parent="1" vertex="1">
                    <mxGeometry x="260" y="100" width="310" height="130" as="geometry"/>
                </mxCell>
                <mxCell id="4" value="NAT&lt;div&gt;Gatway&lt;/div&gt;" style="outlineConnect=0;dashed=0;verticalLabelPosition=middle;verticalAlign=middle;align=left;html=1;shape=mxgraph.aws3.vpc_nat_gateway;fillColor=#F58534;gradientColor=none;aspect=fixed;labelPosition=right;" parent="2" vertex="1">
                    <mxGeometry x="40" y="38.91" width="50" height="52.17" as="geometry"/>
                </mxCell>
                <mxCell id="6" value="Application&lt;div&gt;Load Balancer&lt;/div&gt;" style="outlineConnect=0;dashed=0;verticalLabelPosition=middle;verticalAlign=middle;align=left;html=1;shape=mxgraph.aws3.application_load_balancer;fillColor=#F58534;gradientColor=none;aspect=fixed;labelPosition=right;" parent="2" vertex="1">
                    <mxGeometry x="170" y="38.91" width="50" height="52.17" as="geometry"/>
                </mxCell>
                <mxCell id="3" value="Private subnet" style="points=[[0,0],[0.25,0],[0.5,0],[0.75,0],[1,0],[1,0.25],[1,0.5],[1,0.75],[1,1],[0.75,1],[0.5,1],[0.25,1],[0,1],[0,0.75],[0,0.5],[0,0.25]];outlineConnect=0;gradientColor=none;html=1;whiteSpace=wrap;fontSize=12;fontStyle=0;container=1;pointerEvents=0;collapsible=0;recursiveResize=0;shape=mxgraph.aws4.group;grIcon=mxgraph.aws4.group_security_group;grStroke=0;strokeColor=#00A4A6;fillColor=#E6F6F7;verticalAlign=top;align=left;spacingLeft=30;fontColor=#147EBA;dashed=0;" parent="1" vertex="1">
                    <mxGeometry x="260" y="260" width="310" height="130" as="geometry"/>
                </mxCell>
                <mxCell id="7" value="EC2&lt;div&gt;Node 1&lt;/div&gt;" style="sketch=0;points=[[0,0,0],[0.25,0,0],[0.5,0,0],[0.75,0,0],[1,0,0],[0,1,0],[0.25,1,0],[0.5,1,0],[0.75,1,0],[1,1,0],[0,0.25,0],[0,0.5,0],[0,0.75,0],[1,0.25,0],[1,0.5,0],[1,0.75,0]];outlineConnect=0;fontColor=#232F3E;fillColor=#ED7100;strokeColor=#ffffff;dashed=0;verticalLabelPosition=bottom;verticalAlign=top;align=center;html=1;fontSize=12;fontStyle=0;aspect=fixed;shape=mxgraph.aws4.resourceIcon;resIcon=mxgraph.aws4.ec2;" parent="3" vertex="1">
                    <mxGeometry x="40" y="40" width="50" height="50" as="geometry"/>
                </mxCell>
                <mxCell id="8" value="EC2&lt;div&gt;Node 2&lt;/div&gt;" style="sketch=0;points=[[0,0,0],[0.25,0,0],[0.5,0,0],[0.75,0,0],[1,0,0],[0,1,0],[0.25,1,0],[0.5,1,0],[0.75,1,0],[1,1,0],[0,0.25,0],[0,0.5,0],[0,0.75,0],[1,0.25,0],[1,0.5,0],[1,0.75,0]];outlineConnect=0;fontColor=#232F3E;fillColor=#ED7100;strokeColor=#ffffff;dashed=0;verticalLabelPosition=bottom;verticalAlign=top;align=center;html=1;fontSize=12;fontStyle=0;aspect=fixed;shape=mxgraph.aws4.resourceIcon;resIcon=mxgraph.aws4.ec2;" parent="3" vertex="1">
                    <mxGeometry x="200" y="40" width="50" height="50" as="geometry"/>
                </mxCell>
                <mxCell id="12" style="edgeStyle=none;html=1;" parent="1" source="5" target="6" edge="1">
                    <mxGeometry relative="1" as="geometry"/>
                </mxCell>
                <mxCell id="5" value="Internet&lt;div&gt;Gateway&lt;/div&gt;" style="outlineConnect=0;dashed=0;verticalLabelPosition=middle;verticalAlign=middle;align=left;html=1;shape=mxgraph.aws3.internet_gateway;fillColor=#F58536;gradientColor=none;aspect=fixed;labelPosition=right;" parent="1" vertex="1">
                    <mxGeometry x="430" y="-6" width="50" height="52.17" as="geometry"/>
                </mxCell>
                <mxCell id="9" style="edgeStyle=none;html=1;entryX=0.5;entryY=0;entryDx=0;entryDy=0;entryPerimeter=0;" parent="1" source="5" target="4" edge="1">
                    <mxGeometry relative="1" as="geometry">
                        <Array as="points">
                            <mxPoint x="455" y="60"/>
                            <mxPoint x="325" y="60"/>
                        </Array>
                    </mxGeometry>
                </mxCell>
                <mxCell id="10" style="edgeStyle=none;html=1;exitX=0.5;exitY=1;exitDx=0;exitDy=0;exitPerimeter=0;entryX=0.5;entryY=0;entryDx=0;entryDy=0;entryPerimeter=0;dashed=1;endArrow=none;endFill=0;startArrow=classic;startFill=1;" parent="1" source="4" target="7" edge="1">
                    <mxGeometry relative="1" as="geometry"/>
                </mxCell>
                <mxCell id="11" style="edgeStyle=none;html=1;entryX=0.5;entryY=0;entryDx=0;entryDy=0;entryPerimeter=0;startArrow=classic;startFill=1;endArrow=none;endFill=0;dashed=1;" parent="1" source="4" target="8" edge="1">
                    <mxGeometry relative="1" as="geometry">
                        <Array as="points">
                            <mxPoint x="325" y="250"/>
                            <mxPoint x="485" y="250"/>
                        </Array>
                    </mxGeometry>
                </mxCell>
                <mxCell id="13" style="edgeStyle=none;html=1;entryX=0.75;entryY=0;entryDx=0;entryDy=0;entryPerimeter=0;jumpStyle=arc;" parent="1" source="6" target="7" edge="1">
                    <mxGeometry relative="1" as="geometry">
                        <Array as="points">
                            <mxPoint x="455" y="210"/>
                            <mxPoint x="338" y="210"/>
                        </Array>
                    </mxGeometry>
                </mxCell>
                <mxCell id="14" style="edgeStyle=none;html=1;entryX=0.75;entryY=0;entryDx=0;entryDy=0;entryPerimeter=0;" parent="1" source="6" target="8" edge="1">
                    <mxGeometry relative="1" as="geometry">
                        <Array as="points">
                            <mxPoint x="455" y="210"/>
                            <mxPoint x="498" y="210"/>
                        </Array>
                    </mxGeometry>
                </mxCell>
                <mxCell id="17" value="AWS Cloud" style="points=[[0,0],[0.25,0],[0.5,0],[0.75,0],[1,0],[1,0.25],[1,0.5],[1,0.75],[1,1],[0.75,1],[0.5,1],[0.25,1],[0,1],[0,0.75],[0,0.5],[0,0.25]];outlineConnect=0;gradientColor=none;html=1;whiteSpace=wrap;fontSize=12;fontStyle=0;container=1;pointerEvents=0;collapsible=0;recursiveResize=0;shape=mxgraph.aws4.group;grIcon=mxgraph.aws4.group_aws_cloud;strokeColor=#232F3E;fillColor=none;verticalAlign=top;align=left;spacingLeft=30;fontColor=#232F3E;dashed=0;" parent="1" vertex="1">
                    <mxGeometry x="180" y="-60" width="470" height="520" as="geometry"/>
                </mxCell>
                <mxCell id="18" value="80%" style="text;html=1;align=center;verticalAlign=middle;whiteSpace=wrap;rounded=0;" parent="17" vertex="1">
                    <mxGeometry x="190" y="245" width="60" height="30" as="geometry"/>
                </mxCell>
                <mxCell id="19" value="20%" style="text;html=1;align=center;verticalAlign=middle;whiteSpace=wrap;rounded=0;" parent="17" vertex="1">
                    <mxGeometry x="275" y="245" width="60" height="30" as="geometry"/>
                </mxCell>
                <mxCell id="2omUVZZSrQHH0H-TDdtZ-20" style="edgeStyle=none;html=1;dashed=1;startArrow=classic;startFill=1;" parent="1" source="2omUVZZSrQHH0H-TDdtZ-19" target="5" edge="1">
                    <mxGeometry relative="1" as="geometry"/>
                </mxCell>
                <mxCell id="2omUVZZSrQHH0H-TDdtZ-19" value="" style="outlineConnect=0;dashed=0;verticalLabelPosition=bottom;verticalAlign=top;align=center;html=1;shape=mxgraph.aws3.internet_3;fillColor=#D2D3D3;gradientColor=none;aspect=fixed;" parent="1" vertex="1">
                    <mxGeometry x="430" y="-130" width="50" height="33.96" as="geometry"/>
                </mxCell>
            </root>
        </mxGraphModel>
    </diagram>
    <diagram name="Demonstração 2" id="RR1Rf00T1V-elXOWG_EU">
        <mxGraphModel dx="1107" dy="1701" grid="1" gridSize="10" guides="1" tooltips="1" connect="1" arrows="1" fold="1" page="1" pageScale="1" pageWidth="850" pageHeight="1100" math="0" shadow="0">
            <root>
                <mxCell id="bV5riPkNC_JlCcLs9zjz-0"/>
                <mxCell id="bV5riPkNC_JlCcLs9zjz-1" parent="bV5riPkNC_JlCcLs9zjz-0"/>
                <mxCell id="bV5riPkNC_JlCcLs9zjz-2" value="Availability Zone" style="fillColor=none;strokeColor=#147EBA;dashed=1;verticalAlign=top;fontStyle=0;fontColor=#147EBA;whiteSpace=wrap;html=1;" parent="bV5riPkNC_JlCcLs9zjz-1" vertex="1">
                    <mxGeometry x="400" y="-60" width="350" height="470" as="geometry"/>
                </mxCell>
                <mxCell id="bV5riPkNC_JlCcLs9zjz-3" value="VPC" style="sketch=0;outlineConnect=0;gradientColor=none;html=1;whiteSpace=wrap;fontSize=12;fontStyle=0;shape=mxgraph.aws4.group;grIcon=mxgraph.aws4.group_vpc;strokeColor=#879196;fillColor=none;verticalAlign=top;align=left;spacingLeft=30;fontColor=#879196;dashed=0;" parent="bV5riPkNC_JlCcLs9zjz-1" vertex="1">
                    <mxGeometry x="375" width="400" height="390" as="geometry"/>
                </mxCell>
                <mxCell id="bV5riPkNC_JlCcLs9zjz-4" value="Public subnet" style="points=[[0,0],[0.25,0],[0.5,0],[0.75,0],[1,0],[1,0.25],[1,0.5],[1,0.75],[1,1],[0.75,1],[0.5,1],[0.25,1],[0,1],[0,0.75],[0,0.5],[0,0.25]];outlineConnect=0;gradientColor=none;html=1;whiteSpace=wrap;fontSize=12;fontStyle=0;container=1;pointerEvents=0;collapsible=0;recursiveResize=0;shape=mxgraph.aws4.group;grIcon=mxgraph.aws4.group_security_group;grStroke=0;strokeColor=#7AA116;fillColor=#F2F6E8;verticalAlign=top;align=left;spacingLeft=30;fontColor=#248814;dashed=0;" parent="bV5riPkNC_JlCcLs9zjz-1" vertex="1">
                    <mxGeometry x="420" y="80" width="310" height="130" as="geometry"/>
                </mxCell>
                <mxCell id="bV5riPkNC_JlCcLs9zjz-5" value="NAT&lt;div&gt;Gatway&lt;/div&gt;" style="outlineConnect=0;dashed=0;verticalLabelPosition=middle;verticalAlign=middle;align=left;html=1;shape=mxgraph.aws3.vpc_nat_gateway;fillColor=#F58534;gradientColor=none;aspect=fixed;labelPosition=right;" parent="bV5riPkNC_JlCcLs9zjz-4" vertex="1">
                    <mxGeometry x="40" y="38.91" width="50" height="52.17" as="geometry"/>
                </mxCell>
                <mxCell id="bV5riPkNC_JlCcLs9zjz-6" value="Application&lt;div&gt;Load Balancer&lt;/div&gt;" style="outlineConnect=0;dashed=0;verticalLabelPosition=middle;verticalAlign=middle;align=left;html=1;shape=mxgraph.aws3.application_load_balancer;fillColor=#F58534;gradientColor=none;aspect=fixed;labelPosition=right;" parent="bV5riPkNC_JlCcLs9zjz-4" vertex="1">
                    <mxGeometry x="170" y="38.91" width="50" height="52.17" as="geometry"/>
                </mxCell>
                <mxCell id="bV5riPkNC_JlCcLs9zjz-7" value="Private subnet" style="points=[[0,0],[0.25,0],[0.5,0],[0.75,0],[1,0],[1,0.25],[1,0.5],[1,0.75],[1,1],[0.75,1],[0.5,1],[0.25,1],[0,1],[0,0.75],[0,0.5],[0,0.25]];outlineConnect=0;gradientColor=none;html=1;whiteSpace=wrap;fontSize=12;fontStyle=0;container=1;pointerEvents=0;collapsible=0;recursiveResize=0;shape=mxgraph.aws4.group;grIcon=mxgraph.aws4.group_security_group;grStroke=0;strokeColor=#00A4A6;fillColor=#E6F6F7;verticalAlign=top;align=left;spacingLeft=30;fontColor=#147EBA;dashed=0;" parent="bV5riPkNC_JlCcLs9zjz-1" vertex="1">
                    <mxGeometry x="420" y="240" width="310" height="130" as="geometry"/>
                </mxCell>
                <mxCell id="bV5riPkNC_JlCcLs9zjz-8" value="EC2&lt;div&gt;Node 1&lt;/div&gt;" style="sketch=0;points=[[0,0,0],[0.25,0,0],[0.5,0,0],[0.75,0,0],[1,0,0],[0,1,0],[0.25,1,0],[0.5,1,0],[0.75,1,0],[1,1,0],[0,0.25,0],[0,0.5,0],[0,0.75,0],[1,0.25,0],[1,0.5,0],[1,0.75,0]];outlineConnect=0;fontColor=#232F3E;fillColor=#ED7100;strokeColor=#ffffff;dashed=0;verticalLabelPosition=bottom;verticalAlign=top;align=center;html=1;fontSize=12;fontStyle=0;aspect=fixed;shape=mxgraph.aws4.resourceIcon;resIcon=mxgraph.aws4.ec2;" parent="bV5riPkNC_JlCcLs9zjz-7" vertex="1">
                    <mxGeometry x="40" y="40" width="50" height="50" as="geometry"/>
                </mxCell>
                <mxCell id="bV5riPkNC_JlCcLs9zjz-9" value="EC2&lt;div&gt;Node 2&lt;/div&gt;" style="sketch=0;points=[[0,0,0],[0.25,0,0],[0.5,0,0],[0.75,0,0],[1,0,0],[0,1,0],[0.25,1,0],[0.5,1,0],[0.75,1,0],[1,1,0],[0,0.25,0],[0,0.5,0],[0,0.75,0],[1,0.25,0],[1,0.5,0],[1,0.75,0]];outlineConnect=0;fontColor=#232F3E;fillColor=#ED7100;strokeColor=#ffffff;dashed=0;verticalLabelPosition=bottom;verticalAlign=top;align=center;html=1;fontSize=12;fontStyle=0;aspect=fixed;shape=mxgraph.aws4.resourceIcon;resIcon=mxgraph.aws4.ec2;" parent="bV5riPkNC_JlCcLs9zjz-7" vertex="1">
                    <mxGeometry x="200" y="40" width="50" height="50" as="geometry"/>
                </mxCell>
                <mxCell id="bV5riPkNC_JlCcLs9zjz-10" style="edgeStyle=none;html=1;" parent="bV5riPkNC_JlCcLs9zjz-1" source="bV5riPkNC_JlCcLs9zjz-11" target="bV5riPkNC_JlCcLs9zjz-6" edge="1">
                    <mxGeometry relative="1" as="geometry"/>
                </mxCell>
                <mxCell id="bV5riPkNC_JlCcLs9zjz-11" value="Internet&lt;div&gt;Gateway&lt;/div&gt;" style="outlineConnect=0;dashed=0;verticalLabelPosition=middle;verticalAlign=middle;align=left;html=1;shape=mxgraph.aws3.internet_gateway;fillColor=#F58536;gradientColor=none;aspect=fixed;labelPosition=right;" parent="bV5riPkNC_JlCcLs9zjz-1" vertex="1">
                    <mxGeometry x="590" y="-26" width="50" height="52.17" as="geometry"/>
                </mxCell>
                <mxCell id="bV5riPkNC_JlCcLs9zjz-12" style="edgeStyle=none;html=1;entryX=0.5;entryY=0;entryDx=0;entryDy=0;entryPerimeter=0;" parent="bV5riPkNC_JlCcLs9zjz-1" source="bV5riPkNC_JlCcLs9zjz-11" target="bV5riPkNC_JlCcLs9zjz-5" edge="1">
                    <mxGeometry relative="1" as="geometry">
                        <Array as="points">
                            <mxPoint x="615" y="40"/>
                            <mxPoint x="485" y="40"/>
                        </Array>
                    </mxGeometry>
                </mxCell>
                <mxCell id="bV5riPkNC_JlCcLs9zjz-13" style="edgeStyle=none;html=1;exitX=0.5;exitY=1;exitDx=0;exitDy=0;exitPerimeter=0;entryX=0.5;entryY=0;entryDx=0;entryDy=0;entryPerimeter=0;dashed=1;endArrow=none;endFill=0;startArrow=classic;startFill=1;" parent="bV5riPkNC_JlCcLs9zjz-1" source="bV5riPkNC_JlCcLs9zjz-5" target="bV5riPkNC_JlCcLs9zjz-8" edge="1">
                    <mxGeometry relative="1" as="geometry"/>
                </mxCell>
                <mxCell id="bV5riPkNC_JlCcLs9zjz-14" style="edgeStyle=none;html=1;entryX=0.5;entryY=0;entryDx=0;entryDy=0;entryPerimeter=0;startArrow=classic;startFill=1;endArrow=none;endFill=0;dashed=1;" parent="bV5riPkNC_JlCcLs9zjz-1" source="bV5riPkNC_JlCcLs9zjz-5" target="bV5riPkNC_JlCcLs9zjz-9" edge="1">
                    <mxGeometry relative="1" as="geometry">
                        <Array as="points">
                            <mxPoint x="485" y="230"/>
                            <mxPoint x="645" y="230"/>
                        </Array>
                    </mxGeometry>
                </mxCell>
                <mxCell id="bV5riPkNC_JlCcLs9zjz-15" style="edgeStyle=none;html=1;entryX=0.75;entryY=0;entryDx=0;entryDy=0;entryPerimeter=0;jumpStyle=arc;" parent="bV5riPkNC_JlCcLs9zjz-1" source="bV5riPkNC_JlCcLs9zjz-6" target="bV5riPkNC_JlCcLs9zjz-8" edge="1">
                    <mxGeometry relative="1" as="geometry">
                        <Array as="points">
                            <mxPoint x="615" y="190"/>
                            <mxPoint x="498" y="190"/>
                        </Array>
                    </mxGeometry>
                </mxCell>
                <mxCell id="bV5riPkNC_JlCcLs9zjz-16" style="edgeStyle=none;html=1;entryX=0.75;entryY=0;entryDx=0;entryDy=0;entryPerimeter=0;" parent="bV5riPkNC_JlCcLs9zjz-1" source="bV5riPkNC_JlCcLs9zjz-6" target="bV5riPkNC_JlCcLs9zjz-9" edge="1">
                    <mxGeometry relative="1" as="geometry">
                        <Array as="points">
                            <mxPoint x="615" y="190"/>
                            <mxPoint x="658" y="190"/>
                        </Array>
                    </mxGeometry>
                </mxCell>
                <mxCell id="bV5riPkNC_JlCcLs9zjz-17" value="AWS Cloud" style="points=[[0,0],[0.25,0],[0.5,0],[0.75,0],[1,0],[1,0.25],[1,0.5],[1,0.75],[1,1],[0.75,1],[0.5,1],[0.25,1],[0,1],[0,0.75],[0,0.5],[0,0.25]];outlineConnect=0;gradientColor=none;html=1;whiteSpace=wrap;fontSize=12;fontStyle=0;container=1;pointerEvents=0;collapsible=0;recursiveResize=0;shape=mxgraph.aws4.group;grIcon=mxgraph.aws4.group_aws_cloud;strokeColor=#232F3E;fillColor=none;verticalAlign=top;align=left;spacingLeft=30;fontColor=#232F3E;dashed=0;" parent="bV5riPkNC_JlCcLs9zjz-1" vertex="1">
                    <mxGeometry x="340" y="-80" width="470" height="520" as="geometry"/>
                </mxCell>
                <mxCell id="bV5riPkNC_JlCcLs9zjz-20" style="edgeStyle=none;html=1;dashed=1;startArrow=classic;startFill=1;" parent="bV5riPkNC_JlCcLs9zjz-1" source="bV5riPkNC_JlCcLs9zjz-21" target="bV5riPkNC_JlCcLs9zjz-11" edge="1">
                    <mxGeometry relative="1" as="geometry"/>
                </mxCell>
                <mxCell id="bV5riPkNC_JlCcLs9zjz-21" value="" style="outlineConnect=0;dashed=0;verticalLabelPosition=bottom;verticalAlign=top;align=center;html=1;shape=mxgraph.aws3.internet_3;fillColor=#D2D3D3;gradientColor=none;aspect=fixed;" parent="bV5riPkNC_JlCcLs9zjz-1" vertex="1">
                    <mxGeometry x="590" y="-150" width="50" height="33.96" as="geometry"/>
                </mxCell>
                <mxCell id="d6A7e_bsbiXs0J9orXJQ-0" value="Configurações de roteamento:&amp;nbsp;&lt;div&gt;&lt;ul&gt;&lt;li style=&quot;&quot;&gt;http://api.laboratorio.com.br/admin/v1/users&amp;nbsp;&amp;nbsp;&lt;span id=&quot;docs-internal-guid-18bb2736-7fff-875a-ba0f-b0caf0326f00&quot;&gt;&lt;span style=&quot;font-family: Arial, sans-serif; color: rgb(0, 0, 0); background-color: transparent; font-variant-numeric: normal; font-variant-east-asian: normal; font-variant-alternates: normal; font-variant-position: normal; font-variant-emoji: normal; vertical-align: baseline; white-space-collapse: preserve;&quot;&gt;→ EC2 Node 2&lt;/span&gt;&lt;/span&gt;&lt;/li&gt;&lt;li style=&quot;&quot;&gt;&lt;span&gt;&lt;span style=&quot;font-family: Arial, sans-serif; color: rgb(0, 0, 0); background-color: transparent; font-variant-numeric: normal; font-variant-east-asian: normal; font-variant-alternates: normal; font-variant-position: normal; font-variant-emoji: normal; vertical-align: baseline; white-space-collapse: preserve;&quot;&gt;http://laboratorio.com.br/* &lt;/span&gt;&lt;/span&gt;&lt;span style=&quot;color: rgb(0, 0, 0); font-family: Arial, sans-serif; white-space-collapse: preserve;&quot;&gt;→ EC2 Node 1&lt;/span&gt;&lt;/li&gt;&lt;li style=&quot;&quot;&gt;&lt;span style=&quot;color: rgb(0, 0, 0); font-family: Arial, sans-serif; white-space-collapse: preserve;&quot;&gt;Rotas desconheidas &lt;/span&gt;&lt;span style=&quot;color: rgb(0, 0, 0); font-family: Arial, sans-serif; white-space-collapse: preserve;&quot;&gt;→  Defautl action: Not Found 404&lt;/span&gt;&lt;/li&gt;&lt;/ul&gt;&lt;/div&gt;" style="text;html=1;align=left;verticalAlign=top;whiteSpace=wrap;rounded=0;fontSize=12;" parent="bV5riPkNC_JlCcLs9zjz-1" vertex="1">
                    <mxGeometry x="840" y="100" width="430" height="130" as="geometry"/>
                </mxCell>
            </root>
        </mxGraphModel>
    </diagram>
    <diagram id="d08JYFG-_fGWZPe5etzV" name="Demonstração 3">
        <mxGraphModel dx="1107" dy="1701" grid="1" gridSize="10" guides="1" tooltips="1" connect="1" arrows="1" fold="1" page="1" pageScale="1" pageWidth="850" pageHeight="1100" math="0" shadow="0">
            <root>
                <mxCell id="0"/>
                <mxCell id="1" parent="0"/>
                <mxCell id="u_kPKv_uOyALwz_HePbq-1" value="Availability Zone" style="fillColor=none;strokeColor=#147EBA;dashed=1;verticalAlign=top;fontStyle=0;fontColor=#147EBA;whiteSpace=wrap;html=1;" parent="1" vertex="1">
                    <mxGeometry x="400" y="-60" width="350" height="470" as="geometry"/>
                </mxCell>
                <mxCell id="u_kPKv_uOyALwz_HePbq-2" value="VPC" style="sketch=0;outlineConnect=0;gradientColor=none;html=1;whiteSpace=wrap;fontSize=12;fontStyle=0;shape=mxgraph.aws4.group;grIcon=mxgraph.aws4.group_vpc;strokeColor=#879196;fillColor=none;verticalAlign=top;align=left;spacingLeft=30;fontColor=#879196;dashed=0;" parent="1" vertex="1">
                    <mxGeometry x="375" width="400" height="390" as="geometry"/>
                </mxCell>
                <mxCell id="u_kPKv_uOyALwz_HePbq-3" value="Public subnet" style="points=[[0,0],[0.25,0],[0.5,0],[0.75,0],[1,0],[1,0.25],[1,0.5],[1,0.75],[1,1],[0.75,1],[0.5,1],[0.25,1],[0,1],[0,0.75],[0,0.5],[0,0.25]];outlineConnect=0;gradientColor=none;html=1;whiteSpace=wrap;fontSize=12;fontStyle=0;container=1;pointerEvents=0;collapsible=0;recursiveResize=0;shape=mxgraph.aws4.group;grIcon=mxgraph.aws4.group_security_group;grStroke=0;strokeColor=#7AA116;fillColor=#F2F6E8;verticalAlign=top;align=left;spacingLeft=30;fontColor=#248814;dashed=0;" parent="1" vertex="1">
                    <mxGeometry x="420" y="80" width="310" height="130" as="geometry"/>
                </mxCell>
                <mxCell id="u_kPKv_uOyALwz_HePbq-4" value="NAT&lt;div&gt;Gatway&lt;/div&gt;" style="outlineConnect=0;dashed=0;verticalLabelPosition=middle;verticalAlign=middle;align=left;html=1;shape=mxgraph.aws3.vpc_nat_gateway;fillColor=#F58534;gradientColor=none;aspect=fixed;labelPosition=right;" parent="u_kPKv_uOyALwz_HePbq-3" vertex="1">
                    <mxGeometry x="40" y="38.91" width="50" height="52.17" as="geometry"/>
                </mxCell>
                <mxCell id="u_kPKv_uOyALwz_HePbq-5" value="Application&lt;div&gt;Load Balancer&lt;/div&gt;" style="outlineConnect=0;dashed=0;verticalLabelPosition=middle;verticalAlign=middle;align=left;html=1;shape=mxgraph.aws3.application_load_balancer;fillColor=#F58534;gradientColor=none;aspect=fixed;labelPosition=right;" parent="u_kPKv_uOyALwz_HePbq-3" vertex="1">
                    <mxGeometry x="170" y="38.91" width="50" height="52.17" as="geometry"/>
                </mxCell>
                <mxCell id="u_kPKv_uOyALwz_HePbq-6" value="Private subnet" style="points=[[0,0],[0.25,0],[0.5,0],[0.75,0],[1,0],[1,0.25],[1,0.5],[1,0.75],[1,1],[0.75,1],[0.5,1],[0.25,1],[0,1],[0,0.75],[0,0.5],[0,0.25]];outlineConnect=0;gradientColor=none;html=1;whiteSpace=wrap;fontSize=12;fontStyle=0;container=1;pointerEvents=0;collapsible=0;recursiveResize=0;shape=mxgraph.aws4.group;grIcon=mxgraph.aws4.group_security_group;grStroke=0;strokeColor=#00A4A6;fillColor=#E6F6F7;verticalAlign=top;align=left;spacingLeft=30;fontColor=#147EBA;dashed=0;" parent="1" vertex="1">
                    <mxGeometry x="420" y="240" width="310" height="130" as="geometry"/>
                </mxCell>
                <mxCell id="u_kPKv_uOyALwz_HePbq-7" value="EC2&lt;div&gt;Node 1&lt;/div&gt;" style="sketch=0;points=[[0,0,0],[0.25,0,0],[0.5,0,0],[0.75,0,0],[1,0,0],[0,1,0],[0.25,1,0],[0.5,1,0],[0.75,1,0],[1,1,0],[0,0.25,0],[0,0.5,0],[0,0.75,0],[1,0.25,0],[1,0.5,0],[1,0.75,0]];outlineConnect=0;fontColor=#232F3E;fillColor=#ED7100;strokeColor=#ffffff;dashed=0;verticalLabelPosition=bottom;verticalAlign=top;align=center;html=1;fontSize=12;fontStyle=0;aspect=fixed;shape=mxgraph.aws4.resourceIcon;resIcon=mxgraph.aws4.ec2;" parent="u_kPKv_uOyALwz_HePbq-6" vertex="1">
                    <mxGeometry x="40" y="40" width="50" height="50" as="geometry"/>
                </mxCell>
                <mxCell id="u_kPKv_uOyALwz_HePbq-8" value="EC2&lt;div&gt;Node 2&lt;/div&gt;" style="sketch=0;points=[[0,0,0],[0.25,0,0],[0.5,0,0],[0.75,0,0],[1,0,0],[0,1,0],[0.25,1,0],[0.5,1,0],[0.75,1,0],[1,1,0],[0,0.25,0],[0,0.5,0],[0,0.75,0],[1,0.25,0],[1,0.5,0],[1,0.75,0]];outlineConnect=0;fontColor=#232F3E;fillColor=#ED7100;strokeColor=#ffffff;dashed=0;verticalLabelPosition=bottom;verticalAlign=top;align=center;html=1;fontSize=12;fontStyle=0;aspect=fixed;shape=mxgraph.aws4.resourceIcon;resIcon=mxgraph.aws4.ec2;" parent="u_kPKv_uOyALwz_HePbq-6" vertex="1">
                    <mxGeometry x="200" y="40" width="50" height="50" as="geometry"/>
                </mxCell>
                <mxCell id="u_kPKv_uOyALwz_HePbq-9" style="edgeStyle=none;html=1;" parent="1" source="u_kPKv_uOyALwz_HePbq-10" target="u_kPKv_uOyALwz_HePbq-5" edge="1">
                    <mxGeometry relative="1" as="geometry"/>
                </mxCell>
                <mxCell id="u_kPKv_uOyALwz_HePbq-10" value="Internet&lt;div&gt;Gateway&lt;/div&gt;" style="outlineConnect=0;dashed=0;verticalLabelPosition=middle;verticalAlign=middle;align=left;html=1;shape=mxgraph.aws3.internet_gateway;fillColor=#F58536;gradientColor=none;aspect=fixed;labelPosition=right;" parent="1" vertex="1">
                    <mxGeometry x="590" y="-26" width="50" height="52.17" as="geometry"/>
                </mxCell>
                <mxCell id="u_kPKv_uOyALwz_HePbq-11" style="edgeStyle=none;html=1;entryX=0.5;entryY=0;entryDx=0;entryDy=0;entryPerimeter=0;" parent="1" source="u_kPKv_uOyALwz_HePbq-10" target="u_kPKv_uOyALwz_HePbq-4" edge="1">
                    <mxGeometry relative="1" as="geometry">
                        <Array as="points">
                            <mxPoint x="615" y="40"/>
                            <mxPoint x="485" y="40"/>
                        </Array>
                    </mxGeometry>
                </mxCell>
                <mxCell id="u_kPKv_uOyALwz_HePbq-12" style="edgeStyle=none;html=1;exitX=0.5;exitY=1;exitDx=0;exitDy=0;exitPerimeter=0;entryX=0.5;entryY=0;entryDx=0;entryDy=0;entryPerimeter=0;dashed=1;endArrow=none;endFill=0;startArrow=classic;startFill=1;" parent="1" source="u_kPKv_uOyALwz_HePbq-4" target="u_kPKv_uOyALwz_HePbq-7" edge="1">
                    <mxGeometry relative="1" as="geometry"/>
                </mxCell>
                <mxCell id="u_kPKv_uOyALwz_HePbq-13" style="edgeStyle=none;html=1;entryX=0.5;entryY=0;entryDx=0;entryDy=0;entryPerimeter=0;startArrow=classic;startFill=1;endArrow=none;endFill=0;dashed=1;" parent="1" source="u_kPKv_uOyALwz_HePbq-4" target="u_kPKv_uOyALwz_HePbq-8" edge="1">
                    <mxGeometry relative="1" as="geometry">
                        <Array as="points">
                            <mxPoint x="485" y="230"/>
                            <mxPoint x="645" y="230"/>
                        </Array>
                    </mxGeometry>
                </mxCell>
                <mxCell id="u_kPKv_uOyALwz_HePbq-14" style="edgeStyle=none;html=1;entryX=0.75;entryY=0;entryDx=0;entryDy=0;entryPerimeter=0;jumpStyle=arc;" parent="1" source="u_kPKv_uOyALwz_HePbq-5" target="u_kPKv_uOyALwz_HePbq-7" edge="1">
                    <mxGeometry relative="1" as="geometry">
                        <Array as="points">
                            <mxPoint x="615" y="190"/>
                            <mxPoint x="498" y="190"/>
                        </Array>
                    </mxGeometry>
                </mxCell>
                <mxCell id="u_kPKv_uOyALwz_HePbq-15" style="edgeStyle=none;html=1;entryX=0.75;entryY=0;entryDx=0;entryDy=0;entryPerimeter=0;" parent="1" source="u_kPKv_uOyALwz_HePbq-5" target="u_kPKv_uOyALwz_HePbq-8" edge="1">
                    <mxGeometry relative="1" as="geometry">
                        <Array as="points">
                            <mxPoint x="615" y="190"/>
                            <mxPoint x="658" y="190"/>
                        </Array>
                    </mxGeometry>
                </mxCell>
                <mxCell id="u_kPKv_uOyALwz_HePbq-16" value="AWS Cloud" style="points=[[0,0],[0.25,0],[0.5,0],[0.75,0],[1,0],[1,0.25],[1,0.5],[1,0.75],[1,1],[0.75,1],[0.5,1],[0.25,1],[0,1],[0,0.75],[0,0.5],[0,0.25]];outlineConnect=0;gradientColor=none;html=1;whiteSpace=wrap;fontSize=12;fontStyle=0;container=0;pointerEvents=0;collapsible=0;recursiveResize=0;shape=mxgraph.aws4.group;grIcon=mxgraph.aws4.group_aws_cloud;strokeColor=#232F3E;fillColor=none;verticalAlign=top;align=left;spacingLeft=30;fontColor=#232F3E;dashed=0;" parent="1" vertex="1">
                    <mxGeometry x="340" y="-260" width="960" height="700" as="geometry"/>
                </mxCell>
                <mxCell id="u_kPKv_uOyALwz_HePbq-18" value="" style="outlineConnect=0;dashed=0;verticalLabelPosition=bottom;verticalAlign=top;align=center;html=1;shape=mxgraph.aws3.internet_3;fillColor=#D2D3D3;gradientColor=none;aspect=fixed;" parent="1" vertex="1">
                    <mxGeometry x="1065" y="-340" width="50" height="33.96" as="geometry"/>
                </mxCell>
                <mxCell id="u_kPKv_uOyALwz_HePbq-37" value="Route53" style="sketch=0;points=[[0,0,0],[0.25,0,0],[0.5,0,0],[0.75,0,0],[1,0,0],[0,1,0],[0.25,1,0],[0.5,1,0],[0.75,1,0],[1,1,0],[0,0.25,0],[0,0.5,0],[0,0.75,0],[1,0.25,0],[1,0.5,0],[1,0.75,0]];outlineConnect=0;fontColor=#232F3E;fillColor=#8C4FFF;strokeColor=#ffffff;dashed=0;verticalLabelPosition=middle;verticalAlign=middle;align=left;html=1;fontSize=12;fontStyle=0;aspect=fixed;shape=mxgraph.aws4.resourceIcon;resIcon=mxgraph.aws4.route_53;labelPosition=right;" parent="1" vertex="1">
                    <mxGeometry x="795" y="-230" width="50" height="50" as="geometry"/>
                </mxCell>
                <mxCell id="u_kPKv_uOyALwz_HePbq-20" value="Region - sa-east-1" style="points=[[0,0],[0.25,0],[0.5,0],[0.75,0],[1,0],[1,0.25],[1,0.5],[1,0.75],[1,1],[0.75,1],[0.5,1],[0.25,1],[0,1],[0,0.75],[0,0.5],[0,0.25]];outlineConnect=0;gradientColor=none;html=1;whiteSpace=wrap;fontSize=12;fontStyle=0;container=1;pointerEvents=0;collapsible=0;recursiveResize=0;shape=mxgraph.aws4.group;grIcon=mxgraph.aws4.group_region;strokeColor=#00A4A6;fillColor=none;verticalAlign=top;align=left;spacingLeft=30;fontColor=#147EBA;dashed=1;" parent="1" vertex="1">
                    <mxGeometry x="360" y="-103.83" width="440" height="533.83" as="geometry"/>
                </mxCell>
                <mxCell id="u_kPKv_uOyALwz_HePbq-21" value="Availability Zone" style="fillColor=none;strokeColor=#147EBA;dashed=1;verticalAlign=top;fontStyle=0;fontColor=#147EBA;whiteSpace=wrap;html=1;" parent="1" vertex="1">
                    <mxGeometry x="875" y="-60" width="350" height="470" as="geometry"/>
                </mxCell>
                <mxCell id="u_kPKv_uOyALwz_HePbq-22" value="VPC" style="sketch=0;outlineConnect=0;gradientColor=none;html=1;whiteSpace=wrap;fontSize=12;fontStyle=0;shape=mxgraph.aws4.group;grIcon=mxgraph.aws4.group_vpc;strokeColor=#879196;fillColor=none;verticalAlign=top;align=left;spacingLeft=30;fontColor=#879196;dashed=0;" parent="1" vertex="1">
                    <mxGeometry x="850" width="400" height="390" as="geometry"/>
                </mxCell>
                <mxCell id="u_kPKv_uOyALwz_HePbq-23" value="Public subnet" style="points=[[0,0],[0.25,0],[0.5,0],[0.75,0],[1,0],[1,0.25],[1,0.5],[1,0.75],[1,1],[0.75,1],[0.5,1],[0.25,1],[0,1],[0,0.75],[0,0.5],[0,0.25]];outlineConnect=0;gradientColor=none;html=1;whiteSpace=wrap;fontSize=12;fontStyle=0;container=1;pointerEvents=0;collapsible=0;recursiveResize=0;shape=mxgraph.aws4.group;grIcon=mxgraph.aws4.group_security_group;grStroke=0;strokeColor=#7AA116;fillColor=#F2F6E8;verticalAlign=top;align=left;spacingLeft=30;fontColor=#248814;dashed=0;" parent="1" vertex="1">
                    <mxGeometry x="895" y="80" width="310" height="130" as="geometry"/>
                </mxCell>
                <mxCell id="u_kPKv_uOyALwz_HePbq-24" value="NAT&lt;div&gt;Gatway&lt;/div&gt;" style="outlineConnect=0;dashed=0;verticalLabelPosition=middle;verticalAlign=middle;align=left;html=1;shape=mxgraph.aws3.vpc_nat_gateway;fillColor=#F58534;gradientColor=none;aspect=fixed;labelPosition=right;" parent="u_kPKv_uOyALwz_HePbq-23" vertex="1">
                    <mxGeometry x="40" y="38.91" width="50" height="52.17" as="geometry"/>
                </mxCell>
                <mxCell id="u_kPKv_uOyALwz_HePbq-25" value="Application&lt;div&gt;Load Balancer&lt;/div&gt;" style="outlineConnect=0;dashed=0;verticalLabelPosition=middle;verticalAlign=middle;align=left;html=1;shape=mxgraph.aws3.application_load_balancer;fillColor=#F58534;gradientColor=none;aspect=fixed;labelPosition=right;" parent="u_kPKv_uOyALwz_HePbq-23" vertex="1">
                    <mxGeometry x="170" y="38.91" width="50" height="52.17" as="geometry"/>
                </mxCell>
                <mxCell id="u_kPKv_uOyALwz_HePbq-26" value="Private subnet" style="points=[[0,0],[0.25,0],[0.5,0],[0.75,0],[1,0],[1,0.25],[1,0.5],[1,0.75],[1,1],[0.75,1],[0.5,1],[0.25,1],[0,1],[0,0.75],[0,0.5],[0,0.25]];outlineConnect=0;gradientColor=none;html=1;whiteSpace=wrap;fontSize=12;fontStyle=0;container=1;pointerEvents=0;collapsible=0;recursiveResize=0;shape=mxgraph.aws4.group;grIcon=mxgraph.aws4.group_security_group;grStroke=0;strokeColor=#00A4A6;fillColor=#E6F6F7;verticalAlign=top;align=left;spacingLeft=30;fontColor=#147EBA;dashed=0;" parent="1" vertex="1">
                    <mxGeometry x="895" y="240" width="310" height="130" as="geometry"/>
                </mxCell>
                <mxCell id="u_kPKv_uOyALwz_HePbq-27" value="EC2&lt;div&gt;Node 1&lt;/div&gt;" style="sketch=0;points=[[0,0,0],[0.25,0,0],[0.5,0,0],[0.75,0,0],[1,0,0],[0,1,0],[0.25,1,0],[0.5,1,0],[0.75,1,0],[1,1,0],[0,0.25,0],[0,0.5,0],[0,0.75,0],[1,0.25,0],[1,0.5,0],[1,0.75,0]];outlineConnect=0;fontColor=#232F3E;fillColor=#ED7100;strokeColor=#ffffff;dashed=0;verticalLabelPosition=bottom;verticalAlign=top;align=center;html=1;fontSize=12;fontStyle=0;aspect=fixed;shape=mxgraph.aws4.resourceIcon;resIcon=mxgraph.aws4.ec2;" parent="u_kPKv_uOyALwz_HePbq-26" vertex="1">
                    <mxGeometry x="40" y="40" width="50" height="50" as="geometry"/>
                </mxCell>
                <mxCell id="u_kPKv_uOyALwz_HePbq-28" value="EC2&lt;div&gt;Node 2&lt;/div&gt;" style="sketch=0;points=[[0,0,0],[0.25,0,0],[0.5,0,0],[0.75,0,0],[1,0,0],[0,1,0],[0.25,1,0],[0.5,1,0],[0.75,1,0],[1,1,0],[0,0.25,0],[0,0.5,0],[0,0.75,0],[1,0.25,0],[1,0.5,0],[1,0.75,0]];outlineConnect=0;fontColor=#232F3E;fillColor=#ED7100;strokeColor=#ffffff;dashed=0;verticalLabelPosition=bottom;verticalAlign=top;align=center;html=1;fontSize=12;fontStyle=0;aspect=fixed;shape=mxgraph.aws4.resourceIcon;resIcon=mxgraph.aws4.ec2;" parent="u_kPKv_uOyALwz_HePbq-26" vertex="1">
                    <mxGeometry x="200" y="40" width="50" height="50" as="geometry"/>
                </mxCell>
                <mxCell id="u_kPKv_uOyALwz_HePbq-29" style="edgeStyle=none;html=1;" parent="1" source="u_kPKv_uOyALwz_HePbq-30" target="u_kPKv_uOyALwz_HePbq-25" edge="1">
                    <mxGeometry relative="1" as="geometry"/>
                </mxCell>
                <mxCell id="u_kPKv_uOyALwz_HePbq-38" style="edgeStyle=none;html=1;exitX=0.5;exitY=0;exitDx=0;exitDy=0;exitPerimeter=0;" parent="1" source="u_kPKv_uOyALwz_HePbq-30" target="u_kPKv_uOyALwz_HePbq-18" edge="1">
                    <mxGeometry relative="1" as="geometry"/>
                </mxCell>
                <mxCell id="u_kPKv_uOyALwz_HePbq-30" value="Internet&lt;div&gt;Gateway&lt;/div&gt;" style="outlineConnect=0;dashed=0;verticalLabelPosition=middle;verticalAlign=middle;align=left;html=1;shape=mxgraph.aws3.internet_gateway;fillColor=#F58536;gradientColor=none;aspect=fixed;labelPosition=right;" parent="1" vertex="1">
                    <mxGeometry x="1065" y="-26" width="50" height="52.17" as="geometry"/>
                </mxCell>
                <mxCell id="u_kPKv_uOyALwz_HePbq-31" style="edgeStyle=none;html=1;entryX=0.5;entryY=0;entryDx=0;entryDy=0;entryPerimeter=0;" parent="1" source="u_kPKv_uOyALwz_HePbq-30" target="u_kPKv_uOyALwz_HePbq-24" edge="1">
                    <mxGeometry relative="1" as="geometry">
                        <Array as="points">
                            <mxPoint x="1090" y="40"/>
                            <mxPoint x="960" y="40"/>
                        </Array>
                    </mxGeometry>
                </mxCell>
                <mxCell id="u_kPKv_uOyALwz_HePbq-32" style="edgeStyle=none;html=1;exitX=0.5;exitY=1;exitDx=0;exitDy=0;exitPerimeter=0;entryX=0.5;entryY=0;entryDx=0;entryDy=0;entryPerimeter=0;dashed=1;endArrow=none;endFill=0;startArrow=classic;startFill=1;" parent="1" source="u_kPKv_uOyALwz_HePbq-24" target="u_kPKv_uOyALwz_HePbq-27" edge="1">
                    <mxGeometry relative="1" as="geometry"/>
                </mxCell>
                <mxCell id="u_kPKv_uOyALwz_HePbq-33" style="edgeStyle=none;html=1;entryX=0.5;entryY=0;entryDx=0;entryDy=0;entryPerimeter=0;startArrow=classic;startFill=1;endArrow=none;endFill=0;dashed=1;" parent="1" source="u_kPKv_uOyALwz_HePbq-24" target="u_kPKv_uOyALwz_HePbq-28" edge="1">
                    <mxGeometry relative="1" as="geometry">
                        <Array as="points">
                            <mxPoint x="960" y="230"/>
                            <mxPoint x="1120" y="230"/>
                        </Array>
                    </mxGeometry>
                </mxCell>
                <mxCell id="u_kPKv_uOyALwz_HePbq-34" style="edgeStyle=none;html=1;entryX=0.75;entryY=0;entryDx=0;entryDy=0;entryPerimeter=0;jumpStyle=arc;" parent="1" source="u_kPKv_uOyALwz_HePbq-25" target="u_kPKv_uOyALwz_HePbq-27" edge="1">
                    <mxGeometry relative="1" as="geometry">
                        <Array as="points">
                            <mxPoint x="1090" y="190"/>
                            <mxPoint x="973" y="190"/>
                        </Array>
                    </mxGeometry>
                </mxCell>
                <mxCell id="u_kPKv_uOyALwz_HePbq-35" style="edgeStyle=none;html=1;entryX=0.75;entryY=0;entryDx=0;entryDy=0;entryPerimeter=0;" parent="1" source="u_kPKv_uOyALwz_HePbq-25" target="u_kPKv_uOyALwz_HePbq-28" edge="1">
                    <mxGeometry relative="1" as="geometry">
                        <Array as="points">
                            <mxPoint x="1090" y="190"/>
                            <mxPoint x="1133" y="190"/>
                        </Array>
                    </mxGeometry>
                </mxCell>
                <mxCell id="u_kPKv_uOyALwz_HePbq-36" value="Region - us-east-1" style="points=[[0,0],[0.25,0],[0.5,0],[0.75,0],[1,0],[1,0.25],[1,0.5],[1,0.75],[1,1],[0.75,1],[0.5,1],[0.25,1],[0,1],[0,0.75],[0,0.5],[0,0.25]];outlineConnect=0;gradientColor=none;html=1;whiteSpace=wrap;fontSize=12;fontStyle=0;container=1;pointerEvents=0;collapsible=0;recursiveResize=0;shape=mxgraph.aws4.group;grIcon=mxgraph.aws4.group_region;strokeColor=#00A4A6;fillColor=none;verticalAlign=top;align=left;spacingLeft=30;fontColor=#147EBA;dashed=1;" parent="1" vertex="1">
                    <mxGeometry x="835" y="-103.83" width="440" height="533.83" as="geometry"/>
                </mxCell>
                <mxCell id="u_kPKv_uOyALwz_HePbq-39" style="edgeStyle=none;html=1;exitX=0.5;exitY=0;exitDx=0;exitDy=0;exitPerimeter=0;entryX=0.5;entryY=1;entryDx=0;entryDy=0;entryPerimeter=0;" parent="1" source="u_kPKv_uOyALwz_HePbq-10" target="u_kPKv_uOyALwz_HePbq-18" edge="1">
                    <mxGeometry relative="1" as="geometry">
                        <Array as="points">
                            <mxPoint x="615" y="-130"/>
                            <mxPoint x="1090" y="-130"/>
                        </Array>
                    </mxGeometry>
                </mxCell>
                <mxCell id="u_kPKv_uOyALwz_HePbq-41" style="edgeStyle=none;html=1;" parent="1" source="u_kPKv_uOyALwz_HePbq-40" target="u_kPKv_uOyALwz_HePbq-18" edge="1">
                    <mxGeometry relative="1" as="geometry"/>
                </mxCell>
                <mxCell id="u_kPKv_uOyALwz_HePbq-40" value="" style="sketch=0;pointerEvents=1;shadow=0;dashed=0;html=1;strokeColor=none;labelPosition=center;verticalLabelPosition=bottom;verticalAlign=top;align=center;fillColor=#505050;shape=mxgraph.mscae.intune.user_group" parent="1" vertex="1">
                    <mxGeometry x="1065" y="-450" width="50" height="37" as="geometry"/>
                </mxCell>
                <mxCell id="u_kPKv_uOyALwz_HePbq-42" style="edgeStyle=none;html=1;entryX=0.5;entryY=0;entryDx=0;entryDy=0;entryPerimeter=0;" parent="1" source="u_kPKv_uOyALwz_HePbq-18" target="u_kPKv_uOyALwz_HePbq-37" edge="1">
                    <mxGeometry relative="1" as="geometry">
                        <Array as="points">
                            <mxPoint x="820" y="-320"/>
                        </Array>
                    </mxGeometry>
                </mxCell>
                <mxCell id="u_kPKv_uOyALwz_HePbq-43" value="&lt;span style=&quot;color: rgb(63, 63, 63); font-size: 12px; text-align: left; background-color: rgb(251, 251, 251);&quot;&gt;Resolução&amp;nbsp;&lt;/span&gt;&lt;div&gt;&lt;span style=&quot;color: rgb(63, 63, 63); font-size: 12px; text-align: left; background-color: rgb(251, 251, 251);&quot;&gt;DNS e Policy-Based Routing&amp;nbsp;&lt;/span&gt;&lt;/div&gt;" style="edgeLabel;html=1;align=center;verticalAlign=middle;resizable=0;points=[];" parent="u_kPKv_uOyALwz_HePbq-42" vertex="1" connectable="0">
                    <mxGeometry x="-0.1718" y="1" relative="1" as="geometry">
                        <mxPoint x="24" y="-20" as="offset"/>
                    </mxGeometry>
                </mxCell>
            </root>
        </mxGraphModel>
    </diagram>
</mxfile>